<svg xmlns="http://www.w3.org/2000/svg" version="1.1" xmlns:xlink="http://www.w3.org/1999/xlink" xmlns:svgjs="http://svgjs.dev/svgjs" width="1000" height="1000" viewBox="0 0 1000 1000"><rect width="1000" height="1000" fill="#000000"></rect><g transform="matrix(0.7,0,0,0.7,149.57597429979086,358.510841894643)"><svg viewBox="0 0 396 160" data-background-color="#ffffff" preserveAspectRatio="xMidYMid meet" height="404" width="1000" xmlns="http://www.w3.org/2000/svg" xmlns:xlink="http://www.w3.org/1999/xlink"><g id="tight-bounds" transform="matrix(1,0,0,1,0.2400503162558607,0.05044305819347983)"><svg viewBox="0 0 395.52 159.89911370346567" height="159.89911370346567" width="395.52"><g><svg viewBox="0 0 395.52 159.89911370346567" height="159.89911370346567" width="395.52"><g transform="matrix(1,0,0,1,0,103.48944137718189)"><svg viewBox="0 0 395.52 56.40967232628377" height="56.40967232628377" width="395.52"><g id="textblocktransform"><svg viewBox="0 0 395.52 56.40967232628377" height="56.40967232628377" width="395.52" id="textblock"><g><svg viewBox="0 0 395.52 41.99848898720191" height="41.99848898720191" width="395.52"><g transform="matrix(1,0,0,1,0,0)"><svg width="395.52" viewBox="1.6428707838058472 -34.05970001220703 449.1920471191406 47.697669982910156" height="41.99848898720191" data-palette-color="#ffa458"><path d="M3.167 11.624l1.261-3.497c3.807 1.563 7.439 2.178 10.897 1.846v0c4.021-0.387 6.254-1.897 6.697-4.532v0c0.138-0.864 0.154-1.847 0.048-2.948v0l-0.09-0.936c-0.107-1.115-0.274-2.01-0.499-2.685-0.225-0.668-0.614-1.193-1.166-1.575v0c-0.898-0.637-2.917-1.046-6.056-1.226v0c-2.802-0.166-4.749-0.391-5.841-0.674-1.085-0.277-1.991-0.612-2.719-1.005-0.721-0.393-1.353-0.908-1.896-1.545v0c-1.127-1.338-1.812-3.275-2.056-5.81v0l-0.024-0.249c-0.506-5.262 1.378-8.621 5.652-10.077v0c1.356-0.452 2.91-0.762 4.662-0.931v0l0.318-0.03c4.094-0.394 7.499-0.125 10.214 0.806v0l-0.892 3.782c-3.27-1.059-6.228-1.46-8.876-1.205v0l-0.219 0.021c-2.92 0.281-4.878 1.025-5.873 2.232v0c-0.834 1.011-1.141 2.658-0.921 4.941v0l0.009 0.1c0.25 2.601 1.131 4.238 2.642 4.909v0c1.027 0.437 2.813 0.734 5.36 0.891 2.553 0.156 4.457 0.315 5.712 0.476 1.254 0.161 2.344 0.518 3.268 1.072v0c1.914 1.169 3.051 3.628 3.412 7.377v0l0.029 0.309c0.551 5.727-1.424 9.363-5.923 10.907v0c-1.386 0.488-2.71 0.793-3.971 0.914-1.261 0.121-2.41 0.188-3.446 0.201-1.037 0.013-2.1-0.042-3.191-0.166v0c-2.558-0.27-4.732-0.834-6.522-1.693zM48.765-1.625v0c-0.655 0.088-1.8 0.2-3.434 0.336-1.641 0.137-3.924 0.109-6.851-0.082v0l1.008 12.098-4.076 0.34-3.041-36.514c4.615-0.819 9.221-1.42 13.818-1.803v0c3.867-0.322 6.646 0.323 8.34 1.935v0c1.432 1.366 2.288 3.74 2.57 7.121v0l0.235 2.83c0.218 2.618 0.118 4.877-0.298 6.778v0c-0.907 3.969-3.664 6.289-8.271 6.961zM46.647-23.806v0c-4.378 0.365-7.693 0.728-9.944 1.089v0l1.496 17.968c2.827 0.132 5.331 0.108 7.51-0.074 2.179-0.181 3.731-0.468 4.655-0.859 0.925-0.385 1.619-0.968 2.082-1.749v0c0.793-1.324 1.035-3.836 0.727-7.536v0l-0.247-2.97c-0.19-2.285-0.775-3.879-1.753-4.781v0c-0.938-0.899-2.446-1.261-4.526-1.088zM63.393 8.818l9.548-37.505 5.587-0.375 15.296 35.836-4.34 0.291-4.365-10.521-14.777 0.993-2.729 10.997zM71.219-5.97l12.522-0.841-7.779-18.831-0.555 2.783zM97.711 6.58l3.836-37.016 6.272-0.312 9.699 26.711 1.71 5.792 1.076-5.951 6.722-27.508 5.972-0.297 7.76 36.44-4.075 0.203-5.855-27.534-0.991-6.448-1.144 6.605-6.903 28.097-4.724 0.235-10.033-27.405-2.026-6.297-0.489 6.472-2.682 28.008zM165.975 3.668l-0.882-33.208-9.806 0.26-0.095-3.558 24.032-0.639 0.094 3.559-10.146 0.27 0.882 33.208zM186.008 3.198l-0.595-36.776 20.847-0.337 0.058 3.56-16.758 0.271 0.205 12.688 13.508-0.218 0.057 3.529-13.508 0.219 0.218 13.468 17.408-0.282 0.057 3.53zM210.032 2.871l11.988-36.797 5.6-0.008 12.912 36.762-4.35 0.006-3.666-10.785-14.81 0.021-3.444 10.795zM218.812-11.371l12.55-0.018-6.527-19.301-0.737 2.741zM255.741 0.559l1.648-3.332c3.606 1.982 7.146 3.003 10.619 3.062v0c4.039 0.069 6.428-1.18 7.165-3.747v0c0.235-0.843 0.361-1.817 0.38-2.924v0l0.017-0.94c0.019-1.12-0.045-2.028-0.194-2.724-0.148-0.689-0.475-1.255-0.981-1.697v0c-0.821-0.734-2.78-1.368-5.878-1.901v0c-2.765-0.481-4.675-0.924-5.728-1.328-1.047-0.398-1.909-0.833-2.588-1.305-0.672-0.472-1.242-1.055-1.71-1.75v0c-0.968-1.457-1.431-3.458-1.387-6.004v0l0.004-0.25c0.091-5.286 2.341-8.411 6.752-9.376v0c1.399-0.296 2.978-0.429 4.738-0.399v0l0.32 0.006c4.113 0.071 7.465 0.722 10.058 1.953v0l-1.313 3.658c-3.129-1.421-6.024-2.154-8.684-2.199v0l-0.22-0.004c-2.933-0.05-4.962 0.468-6.088 1.555v0c-0.942 0.911-1.433 2.512-1.472 4.806v0l-0.002 0.1c-0.045 2.613 0.646 4.338 2.071 5.176v0c0.971 0.55 2.712 1.047 5.226 1.49 2.519 0.443 4.393 0.816 5.621 1.117 1.228 0.301 2.27 0.779 3.126 1.434v0c1.77 1.377 2.623 3.949 2.558 7.715v0l-0.005 0.31c-0.099 5.752-2.471 9.142-7.116 10.169v0c-1.433 0.329-2.782 0.482-4.049 0.461-1.266-0.022-2.416-0.085-3.447-0.19-1.032-0.104-2.082-0.279-3.151-0.524v0c-2.511-0.557-4.607-1.363-6.29-2.418zM292.271 3.775l0.995-33.205-9.805-0.294 0.106-3.558 24.03 0.72-0.107 3.558-10.145-0.304-0.996 33.205zM307.783 4.257l13.586-36.238 5.595 0.237 11.292 37.292-4.346-0.185-3.19-10.934-14.797-0.627-3.913 10.634zM317.178-9.588l12.539 0.531-5.677-19.568-0.856 2.706zM349.261 6.162l1.842-33.169-9.795-0.544 0.198-3.554 24.003 1.333-0.198 3.554-10.134-0.563-1.842 33.169zM369.831 7.348l2.278-36.71 4.052 0.252-2.278 36.709zM399.038 9.929l-1.486-0.111c-5.691-0.425-9.313-2.495-10.867-6.207v0c-0.915-2.161-1.339-4.984-1.273-8.469v0c0.042-1.635 0.135-3.409 0.278-5.324 0.144-1.921 0.336-3.735 0.577-5.442 0.235-1.714 0.571-3.253 1.007-4.618 0.43-1.365 0.983-2.557 1.662-3.576 0.678-1.019 1.532-1.851 2.563-2.496v0c2.122-1.285 5.077-1.786 8.867-1.503v0l1.485 0.111c5.923 0.443 9.597 2.325 11.02 5.647v0c0.895 2.072 1.272 4.895 1.132 8.468v0c-0.064 1.747-0.168 3.591-0.313 5.532-0.145 1.941-0.329 3.729-0.552 5.364-0.215 1.628-0.528 3.126-0.937 4.493-0.41 1.373-0.946 2.597-1.608 3.67-0.669 1.073-1.527 1.965-2.577 2.675v0c-2.169 1.476-5.162 2.071-8.978 1.786zM397.81 6.368l1.436 0.107c1.755 0.131 3.229 0.048 4.421-0.251 1.185-0.292 2.149-0.896 2.893-1.81v0c1.376-1.682 2.252-5.039 2.628-10.072v0l0.193-2.582c0.18-2.413 0.278-4.569 0.293-6.467 0.015-1.898-0.209-3.515-0.67-4.853v0c-0.95-2.765-3.343-4.291-7.179-4.578v0l-2.014-0.151c-3.902-0.292-6.489 0.775-7.76 3.201v0c-0.811 1.544-1.327 3.401-1.55 5.57-0.229 2.169-0.408 4.111-0.536 5.826v0l-0.193 2.583c-0.352 4.714 0.104 8.09 1.369 10.13v0c1.215 1.989 3.438 3.105 6.669 3.347zM422.057 11.329l3.322-36.63 3.237 0.294 14.436 28.149 1.771 4.719-0.072-5.067 2.369-26.123 3.715 0.337-3.322 36.63-3.426-0.311-14.323-28.068-1.738-4.315 0.084 4.938-2.338 25.784z" opacity="1" transform="matrix(1,0,0,1,0,0)" fill="#ffffff" class="wordmark-text-0" data-fill-palette-color="primary" id="text-0"></path></svg></g></svg></g><g transform="matrix(1,0,0,1,118.31980799999998,45.37565635957746)"><svg viewBox="0 0 158.88038400000002 11.034015966706304" height="11.034015966706304" width="158.88038400000002"><g transform="matrix(1,0,0,1,0,0)"><svg width="158.88038400000002" viewBox="4.829999923706055 -34.93000030517578 672.719970703125 46.72999954223633" height="11.034015966706304" data-palette-color="#ba3b0a"><path d="M24.83 0L4.83 0 4.83-31.85 24.83-31.85 24.83-27.75 9.58-27.75 9.58-18.05 23.93-18.05 23.93-13.95 9.58-13.95 9.58-4.15 24.83-4.15 24.83 0ZM52.72 0L48.57 0 47.97-5.53 47.97-15.55Q47.97-18.5 46.75-19.84 45.52-21.18 42.87-21.18L42.87-21.18Q41.37-21.18 40.21-20.74 39.05-20.3 38.38-19.43 37.72-18.55 37.72-17.23L37.72-17.23 32.47-17.23Q32.47-19.88 33.77-21.53 35.07-23.18 37.41-23.94 39.75-24.7 42.87-24.7L42.87-24.7Q45.8-24.7 48.02-23.74 50.25-22.78 51.48-20.73 52.72-18.68 52.72-15.43L52.72-15.43 52.72 0ZM40.52 0.65L40.52 0.65Q37.5 0.65 35.5-0.41 33.5-1.48 32.51-3.2 31.52-4.93 31.52-6.88L31.52-6.88Q31.52-9.25 32.73-10.79 33.95-12.33 36.1-13.08 38.25-13.83 41.05-13.83L41.05-13.83Q42.97-13.83 44.8-13.48 46.62-13.13 48.4-12.55L48.4-12.55 48.4-9.68Q46.95-10.2 45.19-10.51 43.42-10.83 41.9-10.83L41.9-10.83Q39.62-10.83 38.1-9.93 36.57-9.03 36.57-6.88L36.57-6.88Q36.57-5.3 37.77-4.16 38.97-3.03 41.57-3.03L41.57-3.03Q43.47-3.03 44.92-3.89 46.37-4.75 47.17-6.05 47.97-7.35 47.97-8.65L47.97-8.65 49.12-8.65Q49.12-6.15 48.11-4.04 47.1-1.93 45.17-0.64 43.25 0.65 40.52 0.65ZM70.55 0.65L70.55 0.65Q67.05 0.65 64.65-0.34 62.25-1.33 60.98-3.09 59.72-4.85 59.67-7.23L59.67-7.23 64.15-7.23Q64.25-5.15 65.81-4.15 67.37-3.15 70.05-3.15L70.05-3.15Q71.47-3.15 72.63-3.6 73.8-4.05 74.48-4.83 75.17-5.6 75.17-6.58L75.17-6.58Q75.17-7.8 74.27-8.51 73.37-9.22 71.37-9.78L71.37-9.78 66.45-11.45Q63.5-12.45 61.92-14.11 60.35-15.78 60.35-18.1L60.35-18.1Q60.35-21.08 63-22.89 65.65-24.7 70.02-24.7L70.02-24.7Q74.55-24.7 77.01-22.79 79.47-20.88 79.57-18L79.57-18 75-18Q74.82-19.43 73.58-20.19 72.34-20.95 70.02-20.95L70.02-20.95Q67.84-20.95 66.61-20 65.37-19.05 65.37-17.85L65.37-17.85Q65.37-15.7 69.07-14.65L69.07-14.65 74.25-12.83Q77.2-11.88 78.8-10.38 80.4-8.88 80.4-6.58L80.4-6.58Q80.4-4.73 79.17-3.08 77.95-1.43 75.73-0.39 73.52 0.65 70.55 0.65ZM95.79 0.65L95.79 0.65Q93.74 0.65 92.09-0.13 90.44-0.9 89.48-2.46 88.52-4.03 88.52-6.4L88.52-6.4 88.52-30.6 93.24-30.6 93.24-6.55Q93.24-3.15 96.42-3.15L96.42-3.15Q97.39-3.15 98.32-3.36 99.24-3.58 100.42-4L100.42-4 101.09-0.63Q99.77-0.08 98.48 0.29 97.19 0.65 95.79 0.65ZM100.37-20.83L84.84-20.83 84.84-24.05 100.37-24.05 100.37-20.83ZM128.51 0.65L128.51 0.65Q125.24 0.65 122.65-0.78 120.06-2.2 118.56-5.03 117.06-7.85 117.06-12L117.06-12Q117.06-16.23 118.56-19.04 120.06-21.85 122.65-23.28 125.24-24.7 128.51-24.7L128.51-24.7Q131.74-24.7 134.31-23.28 136.89-21.85 138.38-19.04 139.86-16.23 139.86-12L139.86-12Q139.86-7.85 138.38-5.03 136.89-2.2 134.31-0.78 131.74 0.65 128.51 0.65ZM128.36-3.5L128.36-3.5Q130.44-3.5 131.95-4.5 133.46-5.5 134.28-7.41 135.09-9.33 135.09-12L135.09-12Q135.09-16.1 133.43-18.35 131.76-20.6 128.64-20.6L128.64-20.6Q126.54-20.6 125.03-19.59 123.51-18.57 122.7-16.66 121.89-14.75 121.89-12L121.89-12Q121.89-7.98 123.56-5.74 125.24-3.5 128.36-3.5ZM151.96 0L147.21 0 147.21-24.13 151.96-24.13 151.96 0ZM151.96-10.75L150.66-10.75Q150.66-15.38 151.62-18.44 152.59-21.5 154.32-23 156.06-24.5 158.41-24.5L158.41-24.5Q159.11-24.5 159.72-24.4 160.34-24.3 160.94-24.13L160.94-24.13 160.76-19.4Q160.09-19.58 159.3-19.71 158.51-19.85 157.86-19.85L157.86-19.85Q155.81-19.85 154.51-18.76 153.21-17.68 152.59-15.64 151.96-13.6 151.96-10.75L151.96-10.75ZM182.01 0L174.03-24.05 178.98-24.05 184.71-4.75 184.18-4.75 189.71-22.83 193.83-22.83 199.33-4.7 198.83-4.7 204.56-24.05 209.31-24.05 201.41 0 196.76 0 191.31-17 192.03-17 186.66 0 182.01 0ZM223.68 0.65L223.68 0.65Q220.58 0.65 218.08-0.95 215.58-2.55 214.12-5.4 212.65-8.25 212.65-12L212.65-12Q212.65-15.98 214.1-18.81 215.55-21.65 218.05-23.18 220.55-24.7 223.68-24.7L223.68-24.7Q226.48-24.7 228.48-23.56 230.48-22.43 231.7-20.51 232.93-18.6 233.39-16.18 233.85-13.75 233.55-11.18L233.55-11.18 216.45-11.18 216.45-13.93 230.3-13.93 229.15-13.18Q229.23-14.53 229.02-15.88 228.8-17.23 228.2-18.36 227.6-19.5 226.52-20.19 225.43-20.88 223.75-20.88L223.75-20.88Q221.65-20.88 220.24-19.83 218.83-18.78 218.1-17.01 217.38-15.25 217.38-13.15L217.38-13.15 217.38-11.23Q217.38-8.9 218.08-7.1 218.78-5.3 220.17-4.26 221.55-3.23 223.68-3.23L223.68-3.23Q225.75-3.23 227.12-4.2 228.48-5.18 228.8-7.13L228.8-7.13 233.65-7.13Q233.28-4.78 231.93-3.03 230.58-1.28 228.47-0.31 226.35 0.65 223.68 0.65ZM249.88 0.65L249.88 0.65Q246.38 0.65 243.98-0.34 241.58-1.33 240.31-3.09 239.05-4.85 239-7.23L239-7.23 243.48-7.23Q243.58-5.15 245.14-4.15 246.7-3.15 249.38-3.15L249.38-3.15Q250.8-3.15 251.96-3.6 253.13-4.05 253.81-4.83 254.5-5.6 254.5-6.58L254.5-6.58Q254.5-7.8 253.6-8.51 252.7-9.22 250.7-9.78L250.7-9.78 245.78-11.45Q242.83-12.45 241.25-14.11 239.68-15.78 239.68-18.1L239.68-18.1Q239.68-21.08 242.33-22.89 244.98-24.7 249.35-24.7L249.35-24.7Q253.88-24.7 256.34-22.79 258.8-20.88 258.9-18L258.9-18 254.33-18Q254.15-19.43 252.91-20.19 251.68-20.95 249.35-20.95L249.35-20.95Q247.18-20.95 245.94-20 244.7-19.05 244.7-17.85L244.7-17.85Q244.7-15.7 248.4-14.65L248.4-14.65 253.58-12.83Q256.53-11.88 258.13-10.38 259.73-8.88 259.73-6.58L259.73-6.58Q259.73-4.73 258.5-3.08 257.28-1.43 255.06-0.39 252.85 0.65 249.88 0.65ZM275.12 0.65L275.12 0.65Q273.07 0.65 271.42-0.13 269.77-0.9 268.81-2.46 267.85-4.03 267.85-6.4L267.85-6.4 267.85-30.6 272.57-30.6 272.57-6.55Q272.57-3.15 275.75-3.15L275.75-3.15Q276.72-3.15 277.65-3.36 278.57-3.58 279.75-4L279.75-4 280.42-0.63Q279.1-0.08 277.81 0.29 276.52 0.65 275.12 0.65ZM279.7-20.83L264.17-20.83 264.17-24.05 279.7-24.05 279.7-20.83ZM307.59 0.65L307.59 0.65Q304.09 0.65 301.69-0.34 299.29-1.33 298.03-3.09 296.77-4.85 296.72-7.23L296.72-7.23 301.19-7.23Q301.29-5.15 302.86-4.15 304.42-3.15 307.09-3.15L307.09-3.15Q308.52-3.15 309.68-3.6 310.84-4.05 311.53-4.83 312.22-5.6 312.22-6.58L312.22-6.58Q312.22-7.8 311.32-8.51 310.42-9.22 308.42-9.78L308.42-9.78 303.49-11.45Q300.54-12.45 298.97-14.11 297.39-15.78 297.39-18.1L297.39-18.1Q297.39-21.08 300.04-22.89 302.69-24.7 307.07-24.7L307.07-24.7Q311.59-24.7 314.06-22.79 316.52-20.88 316.62-18L316.62-18 312.04-18Q311.87-19.43 310.63-20.19 309.39-20.95 307.07-20.95L307.07-20.95Q304.89-20.95 303.66-20 302.42-19.05 302.42-17.85L302.42-17.85Q302.42-15.7 306.12-14.65L306.12-14.65 311.29-12.83Q314.24-11.88 315.84-10.38 317.44-8.88 317.44-6.58L317.44-6.58Q317.44-4.73 316.22-3.08 314.99-1.43 312.78-0.39 310.57 0.65 307.59 0.65ZM336.51 0.65L336.51 0.65Q333.89 0.65 331.97-0.54 330.04-1.73 329.03-4.04 328.01-6.35 328.01-9.78L328.01-9.78 329.87-9.78Q329.87-7.8 330.72-6.44 331.56-5.08 332.95-4.36 334.34-3.65 335.92-3.65L335.92-3.65Q337.56-3.65 339.13-4.59 340.69-5.53 341.69-7.4 342.69-9.28 342.69-12.05L342.69-12.05Q342.69-14.7 341.8-16.57 340.92-18.45 339.39-19.45 337.87-20.45 335.97-20.45L335.97-20.45Q334.37-20.45 332.97-19.69 331.56-18.93 330.72-17.46 329.87-16 329.87-13.9L329.87-13.9 328.01-13.9Q328.01-17.53 329.18-19.93 330.34-22.33 332.31-23.51 334.29-24.7 336.69-24.7L336.69-24.7Q339.51-24.7 341.99-23.19 344.47-21.68 346-18.85 347.54-16.03 347.54-12.05L347.54-12.05Q347.54-8.08 345.99-5.23 344.44-2.38 341.93-0.86 339.42 0.65 336.51 0.65ZM329.87 11.8L325.12 11.8 325.12-24.05 329.04-24.05 329.87-18.28 329.87 11.8ZM374.11 0L369.96 0 369.36-5.53 369.36-15.55Q369.36-18.5 368.14-19.84 366.91-21.18 364.26-21.18L364.26-21.18Q362.76-21.18 361.6-20.74 360.44-20.3 359.77-19.43 359.11-18.55 359.11-17.23L359.11-17.23 353.86-17.23Q353.86-19.88 355.16-21.53 356.46-23.18 358.8-23.94 361.14-24.7 364.26-24.7L364.26-24.7Q367.19-24.7 369.41-23.74 371.64-22.78 372.88-20.73 374.11-18.68 374.11-15.43L374.11-15.43 374.11 0ZM361.91 0.65L361.91 0.65Q358.89 0.65 356.89-0.41 354.89-1.48 353.9-3.2 352.91-4.93 352.91-6.88L352.91-6.88Q352.91-9.25 354.13-10.79 355.34-12.33 357.49-13.08 359.64-13.83 362.44-13.83L362.44-13.83Q364.36-13.83 366.19-13.48 368.01-13.13 369.79-12.55L369.79-12.55 369.79-9.68Q368.34-10.2 366.57-10.51 364.81-10.83 363.29-10.83L363.29-10.83Q361.01-10.83 359.49-9.93 357.96-9.03 357.96-6.88L357.96-6.88Q357.96-5.3 359.16-4.16 360.36-3.03 362.96-3.03L362.96-3.03Q364.86-3.03 366.31-3.89 367.76-4.75 368.56-6.05 369.36-7.35 369.36-8.65L369.36-8.65 370.51-8.65Q370.51-6.15 369.5-4.04 368.49-1.93 366.56-0.64 364.64 0.65 361.91 0.65ZM421.24 0L416.46 0 416.46-14.1Q416.46-17.23 414.97-18.84 413.49-20.45 410.99-20.45L410.99-20.45Q407.99-20.45 406.35-18.1 404.71-15.75 404.71-11.35L404.71-11.35 402.63-11.35Q402.63-14.83 403.31-17.35 403.99-19.88 405.25-21.5 406.51-23.13 408.27-23.91 410.03-24.7 412.21-24.7L412.21-24.7Q415.11-24.7 417.12-23.4 419.13-22.1 420.19-19.71 421.24-17.32 421.24-14.1L421.24-14.1 421.24 0ZM387.88 0L383.13 0 383.13-24.05 387.26-24.05 387.78-19.53Q388.94-22.05 390.95-23.38 392.96-24.7 395.69-24.7L395.69-24.7Q398.58-24.7 400.6-23.4 402.61-22.1 403.66-19.71 404.71-17.32 404.71-14.1L404.71-14.1 404.71 0 399.99 0 399.99-14.1Q399.99-17.23 398.5-18.84 397.01-20.45 394.49-20.45L394.49-20.45Q392.49-20.45 391-19.36 389.51-18.28 388.7-16.19 387.88-14.1 387.88-11.1L387.88-11.1 387.88 0ZM450.11 0.65L450.11 0.65Q448.06 0.65 446.4-0.13 444.75-0.9 443.79-2.46 442.83-4.03 442.83-6.4L442.83-6.4 442.83-30.6 447.56-30.6 447.56-6.55Q447.56-3.15 450.73-3.15L450.73-3.15Q451.7-3.15 452.63-3.36 453.56-3.58 454.73-4L454.73-4 455.4-0.63Q454.08-0.08 452.79 0.29 451.5 0.65 450.11 0.65ZM454.68-20.83L439.15-20.83 439.15-24.05 454.68-24.05 454.68-20.83ZM470.2 0.65L470.2 0.65Q467.1 0.65 464.6-0.95 462.1-2.55 460.64-5.4 459.18-8.25 459.18-12L459.18-12Q459.18-15.98 460.63-18.81 462.08-21.65 464.58-23.18 467.08-24.7 470.2-24.7L470.2-24.7Q473-24.7 475-23.56 477-22.43 478.23-20.51 479.45-18.6 479.91-16.18 480.38-13.75 480.08-11.18L480.08-11.18 462.98-11.18 462.98-13.93 476.83-13.93 475.68-13.18Q475.75-14.53 475.54-15.88 475.33-17.23 474.73-18.36 474.13-19.5 473.04-20.19 471.95-20.88 470.28-20.88L470.28-20.88Q468.18-20.88 466.76-19.83 465.35-18.78 464.63-17.01 463.9-15.25 463.9-13.15L463.9-13.15 463.9-11.23Q463.9-8.9 464.6-7.1 465.3-5.3 466.69-4.26 468.08-3.23 470.2-3.23L470.2-3.23Q472.28-3.23 473.64-4.2 475-5.18 475.33-7.13L475.33-7.13 480.18-7.13Q479.8-4.78 478.45-3.03 477.1-1.28 474.99-0.31 472.88 0.65 470.2 0.65ZM506.82 0L502.67 0 502.07-5.53 502.07-15.55Q502.07-18.5 500.85-19.84 499.62-21.18 496.97-21.18L496.97-21.18Q495.47-21.18 494.31-20.74 493.15-20.3 492.49-19.43 491.82-18.55 491.82-17.23L491.82-17.23 486.57-17.23Q486.57-19.88 487.87-21.53 489.17-23.18 491.51-23.94 493.85-24.7 496.97-24.7L496.97-24.7Q499.9-24.7 502.12-23.74 504.35-22.78 505.59-20.73 506.82-18.68 506.82-15.43L506.82-15.43 506.82 0ZM494.62 0.65L494.62 0.65Q491.6 0.65 489.6-0.41 487.6-1.48 486.61-3.2 485.62-4.93 485.62-6.88L485.62-6.88Q485.62-9.25 486.84-10.79 488.05-12.33 490.2-13.08 492.35-13.83 495.15-13.83L495.15-13.83Q497.07-13.83 498.9-13.48 500.72-13.13 502.5-12.55L502.5-12.55 502.5-9.68Q501.05-10.2 499.29-10.51 497.52-10.83 496-10.83L496-10.83Q493.72-10.83 492.2-9.93 490.67-9.03 490.67-6.88L490.67-6.88Q490.67-5.3 491.87-4.16 493.07-3.03 495.67-3.03L495.67-3.03Q497.57-3.03 499.02-3.89 500.47-4.75 501.27-6.05 502.07-7.35 502.07-8.65L502.07-8.65 503.22-8.65Q503.22-6.15 502.21-4.04 501.2-1.93 499.27-0.64 497.35 0.65 494.62 0.65ZM530.79-29.18L530.79-29.18Q529.37-29.18 528.56-29.96 527.75-30.75 527.75-32.1L527.75-32.1Q527.75-33.4 528.56-34.16 529.37-34.93 530.79-34.93L530.79-34.93Q532.19-34.93 533.01-34.16 533.82-33.4 533.82-32.1L533.82-32.1Q533.82-30.75 533.01-29.96 532.19-29.18 530.79-29.18ZM533.17 0L528.42 0 528.42-24.13 533.17-24.13 533.17 0ZM552.39 0.65L552.39 0.65Q548.89 0.65 546.49-0.34 544.09-1.33 542.83-3.09 541.57-4.85 541.52-7.23L541.52-7.23 545.99-7.23Q546.09-5.15 547.65-4.15 549.22-3.15 551.89-3.15L551.89-3.15Q553.32-3.15 554.48-3.6 555.64-4.05 556.33-4.83 557.02-5.6 557.02-6.58L557.02-6.58Q557.02-7.8 556.12-8.51 555.22-9.22 553.22-9.78L553.22-9.78 548.29-11.45Q545.34-12.45 543.77-14.11 542.19-15.78 542.19-18.1L542.19-18.1Q542.19-21.08 544.84-22.89 547.49-24.7 551.87-24.7L551.87-24.7Q556.39-24.7 558.85-22.79 561.32-20.88 561.42-18L561.42-18 556.84-18Q556.67-19.43 555.43-20.19 554.19-20.95 551.87-20.95L551.87-20.95Q549.69-20.95 548.45-20 547.22-19.05 547.22-17.85L547.22-17.85Q547.22-15.7 550.92-14.65L550.92-14.65 556.09-12.83Q559.04-11.88 560.64-10.38 562.24-8.88 562.24-6.58L562.24-6.58Q562.24-4.73 561.02-3.08 559.79-1.43 557.58-0.39 555.37 0.65 552.39 0.65ZM593.69 0.65L593.69 0.65Q591.34 0.65 589.42-0.61 587.51-1.88 586.37-4.35 585.24-6.83 585.24-10.43L585.24-10.43 586.86-10.43Q586.86-8.33 587.77-6.8 588.69-5.28 590.11-4.46 591.54-3.65 593.09-3.65L593.09-3.65Q594.94-3.65 596.42-4.67 597.91-5.7 598.8-7.61 599.69-9.53 599.69-12.13L599.69-12.13Q599.69-14.7 598.81-16.56 597.94-18.43 596.44-19.44 594.94-20.45 593.04-20.45L593.04-20.45Q591.44-20.45 590.02-19.68 588.61-18.9 587.74-17.39 586.86-15.88 586.86-13.7L586.86-13.7 585.24-13.7Q585.24-17.23 586.34-19.68 587.44-22.13 589.4-23.41 591.36-24.7 594.01-24.7L594.01-24.7Q596.89-24.7 599.27-23.16 601.66-21.63 603.1-18.8 604.54-15.98 604.54-12.13L604.54-12.13Q604.54-8.25 603.06-5.39 601.59-2.53 599.12-0.94 596.66 0.65 593.69 0.65ZM585.34 0L582.11 0 582.11-34.18 586.86-34.18 586.86-5.78 585.34 0ZM620.81 0.65L620.81 0.65Q617.71 0.65 615.21-0.95 612.71-2.55 611.25-5.4 609.78-8.25 609.78-12L609.78-12Q609.78-15.98 611.23-18.81 612.68-21.65 615.18-23.18 617.68-24.7 620.81-24.7L620.81-24.7Q623.61-24.7 625.61-23.56 627.61-22.43 628.83-20.51 630.06-18.6 630.52-16.18 630.98-13.75 630.68-11.18L630.68-11.18 613.58-11.18 613.58-13.93 627.43-13.93 626.28-13.18Q626.36-14.53 626.15-15.88 625.93-17.23 625.33-18.36 624.73-19.5 623.65-20.19 622.56-20.88 620.88-20.88L620.88-20.88Q618.78-20.88 617.37-19.83 615.96-18.78 615.23-17.01 614.51-15.25 614.51-13.15L614.51-13.15 614.51-11.23Q614.51-8.9 615.21-7.1 615.91-5.3 617.3-4.26 618.68-3.23 620.81-3.23L620.81-3.23Q622.88-3.23 624.25-4.2 625.61-5.18 625.93-7.13L625.93-7.13 630.78-7.13Q630.41-4.78 629.06-3.03 627.71-1.28 625.6-0.31 623.48 0.65 620.81 0.65ZM647.01 0.65L647.01 0.65Q643.51 0.65 641.11-0.34 638.71-1.33 637.44-3.09 636.18-4.85 636.13-7.23L636.13-7.23 640.61-7.23Q640.71-5.15 642.27-4.15 643.83-3.15 646.51-3.15L646.51-3.15Q647.93-3.15 649.09-3.6 650.26-4.05 650.94-4.83 651.63-5.6 651.63-6.58L651.63-6.58Q651.63-7.8 650.73-8.51 649.83-9.22 647.83-9.78L647.83-9.78 642.91-11.45Q639.96-12.45 638.38-14.11 636.81-15.78 636.81-18.1L636.81-18.1Q636.81-21.08 639.46-22.89 642.11-24.7 646.48-24.7L646.48-24.7Q651.01-24.7 653.47-22.79 655.93-20.88 656.03-18L656.03-18 651.46-18Q651.28-19.43 650.04-20.19 648.81-20.95 646.48-20.95L646.48-20.95Q644.31-20.95 643.07-20 641.83-19.05 641.83-17.85L641.83-17.85Q641.83-15.7 645.53-14.65L645.53-14.65 650.71-12.83Q653.66-11.88 655.26-10.38 656.86-8.88 656.86-6.58L656.86-6.58Q656.86-4.73 655.63-3.08 654.41-1.43 652.19-0.39 649.98 0.65 647.01 0.65ZM672.25 0.65L672.25 0.65Q670.2 0.65 668.55-0.13 666.9-0.9 665.94-2.46 664.98-4.03 664.98-6.4L664.98-6.4 664.98-30.6 669.7-30.6 669.7-6.55Q669.7-3.15 672.88-3.15L672.88-3.15Q673.85-3.15 674.78-3.36 675.7-3.58 676.88-4L676.88-4 677.55-0.63Q676.23-0.08 674.94 0.29 673.65 0.65 672.25 0.65ZM676.83-20.83L661.3-20.83 661.3-24.05 676.83-24.05 676.83-20.83Z" opacity="1" transform="matrix(1,0,0,1,0,0)" fill="#ffffff" class="slogan-text-1" data-fill-palette-color="secondary" id="text-1"></path></svg></g></svg></g></svg></g></svg></g><g transform="matrix(1,0,0,1,142.03705148734025,0)"><svg viewBox="0 0 111.44589702531951 91.27084982392714" height="91.27084982392714" width="111.44589702531951"><g><svg version="1.1" xmlns="http://www.w3.org/2000/svg" xmlns:xlink="http://www.w3.org/1999/xlink" x="0" y="0" viewBox="-9.5367431640625e-7 0 100 81.89700317382812" enable-background="new 0 0 100 81.897" xml:space="preserve" width="111.44589702531951" height="91.27084982392714" class="icon-icon-0" data-fill-palette-color="accent" id="icon-0"><g fill="#ba4e0a" data-fill-palette-color="accent"><path fill="#ffffff" d="M72.775 56.224c1.18-0.372 2.904-0.412 4.1-0.412 0.73 0 1.485 0.018 2.218 0.033 0.72 0.018 1.466 0.036 2.176 0.036 5.072 0 9.847-2.147 13.442-6.051C98.073 46.187 100 41.302 100 36.433c0-5.113-1.983-9.73-5.591-13-3.389-3.074-8.058-4.768-13.141-4.768-1.846 0-3.399 0.273-4.692 0.595 0.009-1.216 0.013-2.486 0.013-3.814 0-3.505-2.229-8.421-12.855-11.933C56.878 1.247 47.842 0 38.295 0c-9.548 0-18.583 1.248-25.44 3.513C2.23 7.024 0 11.94 0 15.446c0 14.945 0.519 26.825 3.047 36.22 2.457 9.117 6.747 16.093 14.348 23.318 4.755 4.521 11.982 6.913 20.898 6.913 8.919 0 16.146-2.393 20.9-6.913 5.787-5.501 9.699-11.117 12.681-18.205C71.916 56.687 72.009 56.465 72.775 56.224zM68.034 55.165c-2.635 6.268-6.133 11.498-11.711 16.802-3.898 3.706-10.034 5.763-18.028 5.763-7.995 0-14.133-2.059-18.03-5.763C6.548 58.92 4.167 46.824 4.167 15.447c0-6.229 15.279-11.278 34.127-11.278 18.848 0 34.127 5.049 34.127 11.278 0 3.163-0.023 6.124-0.081 8.917 0.202 0.029 0.404 0.044 0.608 0.044 2.149 0 4.391-1.576 8.319-1.576 4.047 0 7.721 1.311 10.343 3.687 2.723 2.47 4.223 5.99 4.223 9.914 0 3.834-1.526 7.688-4.187 10.573-2.799 3.035-6.484 4.708-10.379 4.708-1.358 0-2.877-0.072-4.394-0.072C73.101 51.642 69.331 52.084 68.034 55.165z" data-fill-palette-color="accent"></path><path fill="#ffffff" d="M81.269 46.005c4.782-0.482 8.855-4.472 8.855-9.571 0-4.794-3.476-7.892-8.855-7.892-4.453 0-7.686 2.281-9.302 5.24-0.166 2.615-1.311 10.613-1.594 12.898 1.174-0.695 2.806-0.881 4.502-0.881 1.949 0 3.983 0.245 5.5 0.245C80.698 46.045 80.999 46.034 81.269 46.005zM76.036 35.139c0.762-1.023 2.335-2.429 5.232-2.429 2.14 0 4.69 0.646 4.69 3.725 0 3.071-2.598 5.172-5.108 5.425-0.077 0.008-0.225 0.017-0.476 0.017-0.576 0-1.335-0.05-2.139-0.103-0.917-0.059-1.942-0.127-2.988-0.141C75.56 39.284 75.872 36.824 76.036 35.139z" data-fill-palette-color="accent"></path><path fill="#ffffff" d="M62.768 12.169c-0.507-0.272-1.138-0.083-1.413 0.424-0.271 0.506-0.083 1.138 0.425 1.412 1.388 0.748 2.184 1.552 2.184 2.204 0 0.581-0.645 1.39-2.243 2.237-3.851-2.821-12.888-4.805-23.426-4.805-10.54 0-19.576 1.983-23.427 4.805-1.597-0.847-2.241-1.655-2.241-2.237 0-0.655 0.799-1.46 2.192-2.209 0.507-0.272 0.696-0.904 0.425-1.412-0.275-0.506-0.906-0.696-1.413-0.424-2.183 1.173-3.289 2.533-3.289 4.043 0 3.281 5.285 5.599 12.562 6.897-0.947 1.104-1.412 2.809-1.412 5.195v10.342c-0.226 0.111-0.439 0.258-0.628 0.446l-4.615 4.614c-0.918 0.921-1.672 2.735-1.672 4.035v7.566c0 1.299 1.064 2.364 2.364 2.364h11.186c1.299 0 2.363-1.065 2.363-2.364v-7.566c0-1.3-0.751-3.114-1.67-4.035l-4.614-4.614c-0.188-0.188-0.401-0.335-0.629-0.446V28.299c0-1.992 0.355-3.333 1.054-3.993 0.485-0.458 1.21-0.653 2.219-0.593 0.058 0.002 0.112-0.001 0.167-0.008 3.512 0.413 7.301 0.624 11.079 0.624 13.791 0 27.751-2.79 27.751-8.123C66.046 14.702 64.943 13.341 62.768 12.169z" data-fill-palette-color="accent"></path></g></svg></g></svg></g><g></g></svg></g><defs></defs></svg><rect width="395.52" height="159.89911370346567" fill="none" stroke="none" visibility="hidden"></rect></g></svg></g></svg>